<?xml version="1.0" standalone="no"?>
<!DOCTYPE svg PUBLIC "-//W3C//DTD SVG 20010904//EN"
 "http://www.w3.org/TR/2001/REC-SVG-20010904/DTD/svg10.dtd">
<svg version="1.0" xmlns="http://www.w3.org/2000/svg"
 width="512.000000pt" height="512.000000pt" viewBox="0 0 512.000000 512.000000"
 preserveAspectRatio="xMidYMid meet">
<metadata>
Created by potrace 1.16, written by Peter Selinger 2001-2019
</metadata>
<g transform="translate(0.000000,512.000000) scale(0.284444,-0.284444)"
fill="#000000" stroke="none">
<path d="M882 1411 c-36 -59 -38 -60 -99 -71 -82 -16 -86 -31 -28 -90 l46 -47
-12 -67 c-10 -57 -9 -70 3 -82 13 -13 23 -11 79 14 l64 29 60 -28 c83 -37 94
-30 87 60 -5 70 -4 71 32 116 51 61 46 76 -32 95 -61 15 -65 17 -98 73 -20 31
-42 57 -50 57 -8 0 -31 -27 -52 -59z m80 -81 c15 -21 33 -36 48 -38 50 -6 53
-10 31 -41 -14 -19 -21 -45 -21 -75 0 -25 -2 -46 -5 -46 -2 0 -23 7 -46 16
-38 16 -43 16 -75 0 -19 -9 -37 -16 -39 -16 -3 0 -2 20 2 45 5 41 3 49 -22 75
-30 31 -29 32 26 44 16 3 33 19 45 41 10 19 22 34 26 33 4 -2 17 -19 30 -38z"/>
<path d="M794 956 l-34 -34 0 -197 c0 -182 -1 -196 -17 -193 -16 3 -19 19 -23
124 -7 167 -17 177 -172 175 -153 -2 -168 -20 -168 -191 l0 -110 -84 0 c-88 0
-102 -7 -84 -42 8 -17 51 -18 693 -18 642 0 685 1 693 18 17 31 3 42 -53 42
l-53 0 -4 56 c-4 46 -10 61 -37 87 -29 30 -37 32 -113 36 -144 6 -198 -29
-198 -131 0 -36 -4 -48 -15 -48 -13 0 -15 27 -15 180 0 265 -9 280 -178 280
l-104 0 -34 -34z m240 -47 c12 -18 14 -55 13 -198 l-2 -176 -112 -3 -113 -3 0
181 c0 106 4 189 10 201 9 17 22 19 100 19 79 0 90 -2 104 -21z m-381 -159
c10 -14 14 -49 13 -118 l-1 -97 -112 -3 -113 -3 0 109 c0 71 4 112 12 120 8 8
45 12 99 12 77 0 90 -3 102 -20z m758 -121 c14 -14 19 -30 17 -57 l-3 -37
-112 -3 -113 -3 0 45 c0 62 22 76 117 76 60 0 77 -4 94 -21z"/>
</g>
</svg>
