<?xml version="1.0" standalone="no"?>
<!DOCTYPE svg PUBLIC "-//W3C//DTD SVG 20010904//EN"
 "http://www.w3.org/TR/2001/REC-SVG-20010904/DTD/svg10.dtd">
<svg version="1.0" xmlns="http://www.w3.org/2000/svg"
 width="445.000000pt" height="447.000000pt" viewBox="0 0 445.000000 447.000000"
 preserveAspectRatio="xMidYMid meet">

<g transform="translate(0.000000,447.000000) scale(0.100000,-0.100000)"
fill="#000000" stroke="none">
<path d="M1339 4102 c-386 -175 -698 -428 -932 -760 -37 -52 -66 -100 -64
-106 3 -10 266 -176 277 -176 3 0 24 29 47 64 125 184 312 370 502 498 103 69
272 158 364 193 26 10 46 23 44 29 -3 6 -29 77 -58 158 -30 82 -58 148 -64
148 -5 -1 -57 -22 -116 -48z"/>
<path d="M2990 4003 c-29 -82 -55 -153 -57 -159 -2 -6 18 -19 44 -29 26 -10
104 -46 173 -82 269 -137 514 -351 677 -590 31 -46 59 -83 62 -83 8 0 262 157
274 169 11 11 -53 110 -148 228 -223 278 -533 511 -875 658 -45 19 -85 35 -89
35 -4 0 -31 -66 -61 -147z"/>
<path d="M2056 3810 c-691 -87 -1256 -537 -1466 -1169 -69 -208 -84 -298 -84
-531 0 -185 3 -217 27 -331 68 -322 211 -597 429 -828 34 -36 56 -66 50 -70
-6 -3 -82 -76 -169 -162 l-159 -156 116 -123 116 -123 182 177 c100 97 186
176 192 176 5 0 32 -13 58 -30 140 -86 368 -173 550 -210 423 -85 903 -7 1251
205 32 19 64 35 70 35 6 0 92 -80 192 -177 l180 -177 114 120 c63 65 114 122
114 125 1 4 -74 79 -165 168 l-166 162 64 67 c183 190 334 462 402 724 41 158
51 243 50 438 -1 160 -4 202 -27 311 -100 475 -375 867 -789 1125 -177 110
-417 201 -628 239 -110 19 -402 28 -504 15z m499 -360 c664 -142 1138 -732
1112 -1385 -8 -201 -45 -358 -126 -531 -111 -237 -340 -483 -568 -610 -434
-243 -950 -254 -1381 -29 -401 209 -666 573 -738 1015 -19 116 -14 348 10 460
58 268 183 496 376 690 232 234 491 359 855 414 77 12 363 -3 460 -24z"/>
<path d="M2085 3208 c-3 -7 -4 -285 -3 -617 l3 -603 415 -149 c228 -82 420
-149 426 -149 9 0 117 287 116 307 -1 4 -140 58 -309 119 l-308 110 -3 497 -2
497 -165 0 c-123 0 -167 -3 -170 -12z"/>
</g>
</svg>
