<?xml version="1.0" standalone="no"?>
<!DOCTYPE svg PUBLIC "-//W3C//DTD SVG 20010904//EN"
 "http://www.w3.org/TR/2001/REC-SVG-20010904/DTD/svg10.dtd">
<svg version="1.0" xmlns="http://www.w3.org/2000/svg"
 width="512.000000pt" height="512.000000pt" viewBox="0 0 512.000000 512.000000"
 preserveAspectRatio="xMidYMid meet">
<metadata>
Created by potrace 1.16, written by Peter Selinger 2001-2019
</metadata>
<g transform="translate(0.000000,512.000000) scale(0.094815,-0.094815)"
fill="#000000" stroke="none">
<path d="M2470 4974 c-126 -20 -376 -75 -585 -131 -327 -86 -811 -230 -900
-267 -105 -44 -200 -150 -234 -261 -49 -159 -73 -732 -43 -1025 76 -731 334
-1361 780 -1910 113 -139 360 -384 497 -494 274 -219 573 -376 717 -376 59 0
149 29 268 86 225 108 465 288 711 533 525 524 861 1185 978 1922 35 218 45
358 45 619 -1 281 -21 529 -54 640 -31 105 -113 203 -217 259 -45 23 -527 169
-843 254 -584 158 -844 193 -1120 151z m506 -309 c254 -47 718 -170 1164 -309
190 -59 210 -72 230 -144 5 -21 17 -114 26 -208 20 -202 14 -614 -11 -789 -88
-629 -304 -1146 -676 -1616 -108 -137 -388 -415 -514 -510 -221 -168 -413
-274 -496 -274 -82 0 -291 117 -509 285 -122 94 -393 365 -499 499 -403 509
-636 1104 -692 1770 -14 171 -6 585 14 741 15 114 32 158 70 183 47 30 718
229 1037 306 439 106 577 117 856 66z"/>
<path d="M2617 3936 c-95 -35 -169 -122 -182 -211 -9 -59 102 -1151 120 -1186
61 -116 232 -112 293 7 6 11 36 277 68 590 62 629 62 610 1 700 -62 91 -201
137 -300 100z"/>
<path d="M2607 2136 c-129 -48 -200 -147 -200 -281 0 -121 59 -215 168 -267
110 -52 233 -34 324 48 64 58 94 126 95 219 1 117 -57 210 -167 267 -53 27
-166 34 -220 14z"/>
</g>
</svg>
