<?xml version="1.0" standalone="no"?>
<!DOCTYPE svg PUBLIC "-//W3C//DTD SVG 20010904//EN"
 "http://www.w3.org/TR/2001/REC-SVG-20010904/DTD/svg10.dtd">
<svg version="1.0" xmlns="http://www.w3.org/2000/svg"
 width="512.000000pt" height="512.000000pt" viewBox="0 0 512.000000 512.000000"
 preserveAspectRatio="xMidYMid meet">
<metadata>
Created by potrace 1.16, written by Peter Selinger 2001-2019
</metadata>
<g transform="translate(0.000000,512.000000) scale(0.087822,-0.087822)"
fill="#000000" stroke="none">
<path d="M1229 5121 c-37 -36 -39 -42 -39 -98 l0 -60 -107 -6 c-188 -10 -374
-81 -495 -188 -77 -68 -151 -181 -184 -282 -25 -73 -28 -98 -28 -222 -1 -111
3 -151 18 -195 74 -221 255 -456 540 -705 157 -136 440 -353 473 -361 17 -5
38 -36 78 -113 216 -414 573 -691 1020 -791 59 -14 109 -31 122 -42 46 -42
102 -172 118 -274 15 -96 -39 -238 -136 -361 l-51 -63 -196 0 c-178 0 -200 -2
-229 -20 -63 -38 -64 -43 -63 -315 0 -198 3 -253 15 -276 32 -62 -13 -59 970
-59 l895 0 38 34 37 34 3 251 c3 278 0 294 -61 331 -29 18 -51 20 -234 20
l-201 0 -49 57 c-144 170 -180 267 -154 405 21 109 120 278 162 278 6 0 58 15
114 34 303 102 540 284 717 551 61 92 141 243 172 326 14 37 24 48 53 58 88
32 492 395 630 566 127 159 210 303 254 445 20 62 24 96 23 195 -1 197 -52
338 -167 462 -125 134 -331 221 -523 223 l-51 0 -6 55 c-6 63 -29 106 -67 129
-26 15 -170 16 -1700 16 l-1672 0 -39 -39z m3209 -556 c6 -580 -33 -949 -132
-1276 -148 -486 -410 -782 -806 -907 -252 -80 -587 -92 -884 -31 -728 148
-1094 720 -1156 1809 -11 197 -14 723 -3 733 3 4 675 6 1492 5 l1486 -3 3
-330z m-3258 95 c0 -27 -3 -30 -33 -30 -47 0 -139 -26 -195 -54 -150 -77 -223
-252 -177 -422 26 -97 95 -194 262 -366 236 -244 222 -228 239 -298 8 -35 13
-64 12 -66 -2 -1 -39 27 -83 62 -274 223 -469 450 -539 626 -51 128 -28 303
53 406 83 105 229 168 394 171 l67 1 0 -30z m3695 15 c88 -23 139 -49 190 -96
60 -55 90 -108 109 -189 43 -182 -13 -346 -197 -575 -63 -78 -335 -350 -343
-343 -2 3 1 33 8 69 13 75 33 103 202 284 166 177 222 263 246 379 30 144 -37
302 -156 372 -53 31 -154 64 -195 64 -24 0 -29 4 -29 25 0 24 3 25 53 25 29 0
79 -7 112 -15z m-3682 -515 l6 -155 -51 55 c-105 115 -138 190 -108 245 12 23
66 49 115 57 28 5 32 -18 38 -202z m3594 190 c65 -39 46 -140 -47 -240 l-41
-45 5 55 c3 30 6 99 6 153 0 94 1 97 23 97 12 0 36 -9 54 -20z m-1677 -2307
c0 -5 -11 -45 -25 -91 -58 -197 -39 -362 60 -526 19 -32 35 -60 35 -62 0 -2
-63 -4 -140 -4 -77 0 -140 3 -140 7 0 3 11 26 25 50 95 160 114 373 51 553
l-24 69 72 4 c39 1 74 4 79 5 4 1 7 -1 7 -5z m650 -1023 l0 -70 -712 2 -713 3
-3 68 -3 67 716 0 715 0 0 -70z"/>
<path d="M2920 4673 c-29 -15 -57 -55 -162 -232 -70 -117 -131 -218 -137 -224
-6 -6 -115 -30 -243 -53 -240 -45 -270 -55 -295 -105 -7 -13 -13 -46 -13 -73
l0 -48 132 -137 c73 -75 152 -157 176 -183 l44 -46 -42 -264 c-40 -250 -42
-265 -27 -300 19 -46 69 -78 120 -78 26 0 103 31 265 105 125 58 234 105 242
105 9 0 118 -47 243 -105 161 -75 238 -105 264 -105 49 0 99 31 119 74 15 31
15 53 -5 300 l-22 267 24 32 c14 18 80 95 147 172 67 77 128 155 137 174 23
53 0 123 -51 156 -13 9 -129 36 -257 59 -205 38 -235 46 -248 66 -9 12 -68
110 -131 218 -63 107 -127 204 -141 214 -37 28 -97 33 -139 11z m152 -537 c46
-77 94 -147 108 -158 16 -11 78 -28 170 -44 80 -14 147 -27 149 -30 2 -2 -30
-42 -70 -89 -130 -151 -122 -133 -115 -265 3 -63 9 -150 12 -192 l7 -78 -154
71 c-84 39 -168 73 -185 76 -30 5 -122 -31 -304 -118 -19 -10 -36 -16 -37 -15
-1 1 9 69 22 151 37 228 43 204 -84 342 -69 74 -105 120 -98 124 7 3 59 14
117 23 183 29 181 28 295 225 38 67 73 120 77 119 4 -2 44 -66 90 -142z"/>
</g>
</svg>
