<svg width="326" height="986" viewBox="0 0 326 986" fill="none" xmlns="http://www.w3.org/2000/svg">
<g filter="url(#filter0_d_61_319)">
<path d="M42 4C42 4 92.0001 37 186 31C252 26.7872 290.5 40.5 296 79C301.5 117.5 282 145.842 229 157C176 168.158 147 150.455 99 169C51 187.545 23.2556 217 28 254C33.7701 299 92.5 319 155.5 294.5C245.378 259.548 300.5 294.5 314 340.5C327.5 386.5 308.683 444.332 229 457C160 467.969 31.4407 430.229 15.4999 539C6.99985 597 65 659 222 597C266.5 579.427 314 608 314 661C314 714 282 761 180.5 775C136 781.138 26.5 767.5 9.49985 862C-3.00288 931.5 82 964 133.5 974" stroke="#1A9CD8" stroke-width="8" stroke-linecap="round"/>
</g>
<defs>
<filter id="filter0_d_61_319" x="0.256348" y="-0.000488281" width="325.743" height="986.001" filterUnits="userSpaceOnUse" color-interpolation-filters="sRGB">
<feFlood flood-opacity="0" result="BackgroundImageFix"/>
<feColorMatrix in="SourceAlpha" type="matrix" values="0 0 0 0 0 0 0 0 0 0 0 0 0 0 0 0 0 0 127 0" result="hardAlpha"/>
<feOffset dy="4"/>
<feGaussianBlur stdDeviation="2"/>
<feComposite in2="hardAlpha" operator="out"/>
<feColorMatrix type="matrix" values="0 0 0 0 0 0 0 0 0 0 0 0 0 0 0 0 0 0 0.25 0"/>
<feBlend mode="normal" in2="BackgroundImageFix" result="effect1_dropShadow_61_319"/>
<feBlend mode="normal" in="SourceGraphic" in2="effect1_dropShadow_61_319" result="shape"/>
</filter>
</defs>
</svg>
